<svg id="Layer_1" data-name="Layer 1" xmlns="http://www.w3.org/2000/svg" viewBox="0 0 300 70.62"><defs><style>.cls-1{fill:#fff;}</style></defs><path class="cls-1" d="M127.46,18.59c-.48-3.13-2.95-6.09-5.79-6.73a14.71,14.71,0,0,0-5.57-.14,17.68,17.68,0,0,0-10.31,5.6c-.39.41-.73.86-1.14,1.34a1.7,1.7,0,0,1-.19-1.46c.17-1.17.33-2.34.53-3.51.16-.89,0-1.31-1.07-1.28-2.55.07-5.1,0-7.66,0-1.69,0-1.7,0-2,1.61-2,9.59-4,19.17-5.8,28.79a4.62,4.62,0,0,1-3.1,3.89c-3.41,1.36-6.84,2.22-10.5,1.21a6.51,6.51,0,0,1-5-6.35,29.29,29.29,0,0,1,.49-6.74c1-4.71,3-8.67,7.42-11.06a17.37,17.37,0,0,1,8.51-2c1,0,1.49-.31,1.7-1.32.45-2.14,1-4.26,1.51-6.38.28-1.18.18-1.35-1-1.35a43.82,43.82,0,0,0-8.78.82c-8.43,1.73-14.88,6.1-18.59,14.05a33.65,33.65,0,0,0-2.9,15A2,2,0,0,1,57,44.63a42.56,42.56,0,0,1-11.38,4.53,21.43,21.43,0,0,1-7,.54,6.69,6.69,0,0,1-6.32-5.52,17.12,17.12,0,0,1-.12-4.29c0-1.07.4-1.74,1.68-1.62a16,16,0,0,0,2.58-.15,55,55,0,0,0,12.42-2c6.43-2,10.65-6,11.65-13a9.34,9.34,0,0,0-6.24-10.55,20.17,20.17,0,0,0-5.15-1.12c-6.75-.61-12.76,1.08-17.8,5.72-4.77,4.41-7.37,10-8.7,16.25a35.4,35.4,0,0,0-.73,11.43c.08.68.36,1.51-.33,2a7.91,7.91,0,0,1-5.06,1.88,2.82,2.82,0,0,1-3-2.74,11.22,11.22,0,0,1,.19-3.42c1-7.1,2.72-14.07,4.29-21.07a1.19,1.19,0,0,1,1.4-1.09c2.26,0,4.53,0,6.8,0a1,1,0,0,0,1.2-1c.3-2,.62-4,1-5.94.15-.84-.14-1.11-.94-1.1-1.91,0-3.81,0-5.72,0-1.51,0-1.5,0-1.08-1.4,1.1-3.67,2.18-7.35,3.28-11h-.65C19.86,1.14,16.41,2,13,3a1.86,1.86,0,0,0-1.49,1.45c-.65,2.35-1.4,4.67-2.05,7a1.2,1.2,0,0,1-1.38,1c-1.83,0-3.67,0-5.5,0-.83,0-1.24.26-1.38,1.11Q.69,16.44.06,19.34c-.19.86,0,1.19.93,1.16,1.33,0,2.66,0,4,0,2.17,0,2.16,0,1.67,2.08C4.7,30.78,2.8,39,1.5,47.32c-.61,3.88.6,6.81,3.58,8.52a10.94,10.94,0,0,0,5.24,1.45,20.76,20.76,0,0,0,13.49-4.61c.41-.32.73-.71,1.27-.16,3.55,3.59,8.08,4.69,12.9,4.73A37.38,37.38,0,0,0,59.81,51c.43-.3.66-.24,1,.16,3.27,4.36,7.87,6,13.09,6.09A23.35,23.35,0,0,0,85,54.66c.25-.13.48-.44.87-.28,0,.27-.08.51-.12.76-.25,1.44-.23,1.47,1.2,1.48,2.87,0,5.75,0,8.63,0,1,0,1.38-.24,1.54-1.27a155.53,155.53,0,0,1,4-19.69c1.08-3.76,2.21-7.52,4.71-10.66a11.07,11.07,0,0,1,5.33-4c3-.93,4.91.45,5,3.53a25.69,25.69,0,0,1-.78,6.6c-1.88,8-3.62,16.09-5.34,24.16-.25,1.19-.14,1.34,1,1.34,2.92,0,5.83,0,8.74,0,.84,0,1.19-.32,1.38-1.13,2.16-9.48,4.24-19,5.68-28.58C127.32,24.17,127.89,21.42,127.46,18.59ZM34.69,28.23A12.8,12.8,0,0,1,42,19.69a8.26,8.26,0,0,1,4.66-.42c3.21.54,4.53,4.24,2.58,7.14a7.52,7.52,0,0,1-2.85,2.4A22.13,22.13,0,0,1,36.79,31C33.93,31.05,33.84,31,34.69,28.23Z"/><path class="cls-1" d="M299.29,13.1a57.25,57.25,0,0,0-17.21-1.54c-10.07.9-17.37,5.67-21.5,15-.11.24-.1.57-.46.66-.26-.18-.19-.45-.19-.69a20.39,20.39,0,0,0-.91-5.07c-1.59-5.33-5-8.67-10.59-9.61a27.36,27.36,0,0,0-5.27-.27c-7.88.17-14.2,3.38-18.55,10a35.26,35.26,0,0,0-5.45,23.84,12.59,12.59,0,0,0,6.68,10c3.63,2.06,7.6,2.23,11.53,1.78,8.37-1,14.44-5.41,18.32-12.86.54-1,1.05-2.08,1.58-3.12a22.73,22.73,0,0,0,.85,8,10.55,10.55,0,0,0,10.9,8,16.55,16.55,0,0,0,9.72-3.65,22.17,22.17,0,0,0,3.47-3.45,3.52,3.52,0,0,1,.06.46c-.6,4.39-3.77,9.51-9.71,10.46a64.25,64.25,0,0,1-6.65.66,1.76,1.76,0,0,0-1.42.59c-2.11,2.5-4.24,5-6.36,7.45-.17.2-.53.41-.32.71.1.14.46.14.7.13,2-.07,4-.09,5.93-.25,2.64-.21,5.3-.18,7.94-.6,10.73-1.67,17.65-8.42,20.12-18.7,2.18-9.06,3.95-18.22,5.86-27.34.63-3,1.1-6.06,1.64-9.1V13.34A6.59,6.59,0,0,0,299.29,13.1Zm-52.8,25.11A18.33,18.33,0,0,1,242,46.64,8.35,8.35,0,0,1,234.54,49a4.44,4.44,0,0,1-3.76-3.42,19.19,19.19,0,0,1-.47-5.45,28.92,28.92,0,0,1,3.06-13.83c1.61-3.05,3.85-5.46,7.34-6.37,4.37-1.15,7.53,1.19,7.69,5.7A40.26,40.26,0,0,1,246.49,38.21Zm41.35-16.59a64.39,64.39,0,0,1-1.47,7.91,47.59,47.59,0,0,1-5.11,12.95,17,17,0,0,1-5.58,5.73c-3.31,2-6.17.8-7-3a20.61,20.61,0,0,1-.43-4.71c.19-6.78,2.25-12.85,7-17.85,2.42-2.53,5.56-3.11,8.87-3.14.68,0,1.36.09,2,.15C287.86,19.76,288.06,20,287.84,21.62Z"/><path class="cls-1" d="M206.13,20.91a9.92,9.92,0,0,0-8.39-9A15.21,15.21,0,0,0,188.89,13a20.29,20.29,0,0,0-6.35,4.53c.54-2.77,1.18-5.48,1.76-8.2.67-3.12,1.57-6.19,2-9.35h-.44c-2.86.94-5.71,1.93-8.6,2.81a2.31,2.31,0,0,0-1.83,1.92c-.93,4.21-1.95,8.39-2.94,12.57q-4.35,18.48-8.71,37c-.37,1.53-.34,1.53,1.32,1.72,4.06.48,8.13.92,12.22,1.17a27.32,27.32,0,0,0,10.83-1.29c8.74-3,13.91-9.45,16.65-18A39.57,39.57,0,0,0,206.13,20.91Zm-10.75,6.68a29,29,0,0,1-3.79,15c-2.61,4.44-6.39,6.76-11.6,6.66-1.08,0-2.15,0-3.23-.07-.78,0-1.06-.43-.91-1.22,1.2-6.35,2.64-12.64,5.37-18.55a19.91,19.91,0,0,1,5.89-8,8.49,8.49,0,0,1,3.52-1.57,3.39,3.39,0,0,1,4.15,2.36A15.14,15.14,0,0,1,195.38,27.59Z"/><path class="cls-1" d="M226,0h-.43a3.12,3.12,0,0,1-.49.23c-2.9.93-5.81,1.87-8.73,2.76a1.61,1.61,0,0,0-1.23,1.31c-.26,1.27-.62,2.51-.93,3.76q-5.94,23.5-11.87,47c-.38,1.48-.34,1.54,1,1.55,2.94,0,5.89,0,8.83,0,1,0,1.31-.37,1.51-1.25Q219.17,31,224.66,6.62A49.47,49.47,0,0,0,226,0Z"/><path class="cls-1" d="M166.71,22.55c-1.16-5.86-4.83-9.54-10.57-10.65a25.69,25.69,0,0,0-5.47-.3c-8.34.19-14.82,3.75-19.15,10.85a35.71,35.71,0,0,0-4.92,22.61,12.75,12.75,0,0,0,6.87,10.43,17.29,17.29,0,0,0,8.77,1.84A22.8,22.8,0,0,0,161,47.87a29,29,0,0,0,4.56-10C167,32.83,167.74,27.75,166.71,22.55Zm-15,21.1a9.17,9.17,0,0,1-6.57,5.26c-1.92.34-3.86.42-5.5-1.06s-1.66-3.26-1.84-5.11c-.08-.85,0-1.72,0-2.58a28.29,28.29,0,0,1,3.59-14.84,11.08,11.08,0,0,1,7.13-5.5c4-.93,7.11,1.2,7.28,5.25A36.7,36.7,0,0,1,151.74,43.65Z"/></svg>